<?xml version="1.0" encoding="UTF-8" standalone="no"?>
<!-- Created with Inkscape (http://www.inkscape.org/) -->

<svg
   width="604.21527"
   height="104.104"
   viewBox="0 0 604.21527 104.104"
   version="1.1"
   id="svg5"
   xmlns:inkscape="http://www.inkscape.org/namespaces/inkscape"
   xmlns:sodipodi="http://sodipodi.sourceforge.net/DTD/sodipodi-0.dtd"
   xmlns="http://www.w3.org/2000/svg"
   xmlns:svg="http://www.w3.org/2000/svg">
  <sodipodi:namedview
     id="namedview7"
     pagecolor="#505050"
     bordercolor="#eeeeee"
     borderopacity="1"
     inkscape:showpageshadow="0"
     inkscape:pageopacity="0"
     inkscape:pagecheckerboard="0"
     inkscape:deskcolor="#505050"
     inkscape:document-units="mm"
     showgrid="false" />
  <defs
     id="defs2" />
  <g
     inkscape:label="Layer 1"
     inkscape:groupmode="layer"
     id="layer1"
     transform="translate(6.8743305,-44.761311)">
    <g
       aria-label="FLARE35 Blog"
       id="text236"
       style="font-weight:600;font-size:144px;line-height:0;font-family:Wotfard;-inkscape-font-specification:'Wotfard Semi-Bold';text-align:center;text-anchor:middle;stroke:#000000;stroke-linecap:round;stroke-linejoin:round"
       inkscape:export-filename="flare35-blog.svg"
       inkscape:export-xdpi="96"
       inkscape:export-ydpi="96">
      <path
         d="M -6.3743304,146.06131 H 14.93767 v -38.448 h 41.616 v -19.44 h -41.616 v -23.328 h 46.08 v -19.584 H -6.3743304 Z"
         id="path957" />
      <path
         d="m 75.56143,146.06131 h 67.968 v -20.592 h -46.656 v -80.208 h -21.312 z"
         id="path959" />
      <path
         d="m 230.9373,146.06131 h 22.608 l -39.024,-100.8 h -25.776 l -39.024,100.8 h 22.32 l 7.632,-20.592 h 43.488 z m -44.064,-39.888 14.4,-38.736 14.544,38.736 z"
         id="path961" />
      <path
         d="m 340.66519,146.06131 -19.872,-37.296 c 12.24,-4.896 19.584,-16.272 19.584,-30.528 0,-18.864 -13.824,-32.976 -34.704,-32.976 h -41.184 v 100.8 h 21.312 v -34.416 h 14.688 l 16.848,34.416 z m -54.864,-82.224 h 15.984 c 9.072,0 15.84,4.752 15.84,14.4 0,9.36 -6.336,14.4 -15.84,14.4 h -15.984 z"
         id="path963" />
      <path
         d="m 355.64111,146.06131 h 67.392 v -19.584 h -46.512 v -21.456 h 42.048 v -19.008 h -42.048 v -21.744 h 46.512 v -19.008 h -67.392 z"
         id="path965" />
      <path
         d="m 481.78498,87.88531 c -2.16,0 -4.464,0.288 -5.904,0.576 l 29.664,-21.744 v -21.456 h -65.52 v 19.152 h 38.448 l -25.92,19.44 9.36,21.888 c 2.16,-0.864 5.616,-2.016 9.36,-2.016 8.496,0 14.544,4.608 14.544,12.24 0,6.768 -5.472,12.384 -14.832,12.384 -10.08,0 -22.176,-3.6 -30.96,-8.64 v 21.168 c 7.488,3.6 18.288,7.344 30.96,7.344 23.904,0 37.44,-13.968 37.44,-31.104 0,-16.992 -11.376,-29.232 -26.64,-29.232 z"
         id="path967" />
      <path
         d="m 564.72892,81.98131 c -7.2,0 -12.24,1.728 -15.12,2.88 l 1.008,-20.304 h 41.472 v -19.152 h -60.336 l -1.872,48.384 14.4,11.52 c 2.592,-1.872 7.632,-4.176 13.536,-4.176 10.512,0 16.416,5.904 16.416,13.536 0,8.64 -6.912,13.824 -15.696,13.824 -10.368,0 -21.312,-3.6 -30.096,-8.64 v 21.168 c 7.632,3.456 18,7.344 31.392,7.344 23.184,0 37.008,-15.12 37.008,-33.696 0,-19.728 -13.824,-32.688 -32.112,-32.688 z"
         id="path969" />
    </g>
  </g>
</svg>
